Coordinates
version=1
nRows=19
nColumns=24
inDegrees=yes

Units are S.I. units (second, meters, Newtons, ...)
Angles are in degrees.

endheader
time	pelvis_tilt	pelvis_list	pelvis_rotation	pelvis_tx	pelvis_ty	pelvis_tz	hip_flexion_r	hip_adduction_r	hip_rotation_r	knee_angle_r	ankle_angle_r	subtalar_angle_r	mtp_angle_r	hip_flexion_l	hip_adduction_l	hip_rotation_l	knee_angle_l	ankle_angle_l	subtalar_angle_l	mtp_angle_l	lumbar_extension	lumbar_bending	lumbar_rotation
      3.92500000	     -8.53103656	      7.62701397	     -3.74250278	     -0.92489295	     -0.01638724	     -0.32771267	     26.55744635	    -12.31929760	     -4.54762157	    -65.51008852	    -14.11636384	     -0.43074685	     22.30601060	     14.43222580	     11.45838919	      6.87283942	    -15.28104923	      6.38040005	      0.64148114	    -15.31717806	     11.57443835	    -10.31394060	     -1.65182024
      3.93000000	     -8.51443971	      7.24535022	     -3.53977267	     -0.91874707	     -0.01561320	     -0.32833515	     27.13193176	    -11.99680227	     -4.93307903	    -64.96352048	    -13.41824022	     -0.02831685	     22.58700819	     13.69039167	     11.19625340	      7.40007596	    -14.87927732	      6.55779806	      0.35041736	    -15.59427229	     11.48604791	     -9.94522241	     -2.15704647
      3.93500000	     -8.49802410	      6.87784188	     -3.32374142	     -0.91263168	     -0.01493091	     -0.32896344	     27.69329603	    -11.68874350	     -5.31568571	    -64.35902904	    -12.71525342	      0.38197088	     22.83880930	     12.95144803	     10.94072343	      7.96917754	    -14.47633411	      6.76265793	      0.08654368	    -15.87459468	     11.39362198	     -9.58845083	     -2.64685053
      3.94000000	     -8.46306125	      6.53827540	     -3.08608449	     -0.90654030	     -0.01433932	     -0.32956508	     28.22364513	    -11.42624245	     -5.72603320	    -63.70889291	    -12.00274320	      0.79856675	     23.05398393	     12.19197750	     10.70743419	      8.60866467	    -14.07258102	      7.00461762	     -0.17319188	    -16.21180959	     11.27817670	     -9.28153674	     -3.13040221
      3.94500000	     -8.46043108	      6.19793291	     -2.86362202	     -0.90046429	     -0.01382785	     -0.33015881	     28.77550674	    -11.14502375	     -6.11010040	    -62.98550964	    -11.31819887	      1.20402744	     23.20725647	     11.49023590	     10.45033635	      9.09144468	    -13.68467120	      7.23311250	     -0.34471673	    -16.48467706	     11.20613108	     -8.96055382	     -3.62228522
      3.95000000	     -8.44937047	      5.88360079	     -2.62853247	     -0.89439078	     -0.01341690	     -0.33071220	     29.30470702	    -10.89189078	     -6.49577510	    -62.21378785	    -10.63052198	      1.60122252	     23.30685903	     10.78021915	     10.20845188	      9.58546177	    -13.29335380	      7.48968824	     -0.48045094	    -16.73531378	     11.12197062	     -8.67633918	     -4.11344647
      3.95500000	     -8.44722054	      5.58626256	     -2.39054803	     -0.88831615	     -0.01309240	     -0.33124626	     29.82711144	    -10.65320773	     -6.87257267	    -61.38071363	     -9.96075707	      1.98453219	     23.35702803	     10.08704012	      9.96925174	     10.01344279	    -12.90017335	      7.73830973	     -0.56993393	    -16.94068636	     11.05272239	     -8.41626562	     -4.60009772
      3.96000000	     -8.43699390	      5.32356679	     -2.15449596	     -0.88226094	     -0.01286796	     -0.33173447	     30.33330749	    -10.43965728	     -7.22326008	    -60.49929332	     -9.29255439	      2.33196849	     23.35266651	      9.38879935	      9.75229443	     10.43089249	    -12.50214281	      7.99704196	     -0.62479727	    -17.11632013	     10.97674105	     -8.18983253	     -5.07171104
      3.96500000	     -8.40964304	      5.09461055	     -1.91043503	     -0.87622330	     -0.01273150	     -0.33217513	     30.80713980	    -10.25694455	     -7.56216993	    -59.56866708	     -8.61513667	      2.65163490	     23.27726001	      8.67404329	      9.55941609	     10.85557944	    -12.10076791	      8.26972989	     -0.65734529	    -17.28597502	     10.88043465	     -8.01335579	     -5.54330215
      3.97000000	     -8.46611151	      4.87998127	     -1.75265627	     -0.87017750	     -0.01277295	     -0.33243664	     31.38403806	    -10.01045642	     -7.77627350	    -58.57528872	     -8.03173166	      2.89453696	     23.27168747	      8.06253872	      9.34498294	     11.10457916	    -11.69666110	      8.53552042	     -0.64160529	    -17.31063342	     10.89828710	     -7.84035481	     -5.88635542
      3.97500000	     -8.46324437	      4.68360329	     -1.49514365	     -0.86413290	     -0.01282903	     -0.33286019	     31.84191231	     -9.85428560	     -8.08390588	    -57.51709471	     -7.38895541	      3.19287511	     23.22153762	      7.39016467	      9.16644328	     11.43840785	    -11.30467545	      8.79302542	     -0.58321234	    -17.33969006	     10.83221190	     -7.69247767	     -6.36725159
      3.98000000	     -8.33882188	      4.54401545	     -1.19113909	     -0.85813337	     -0.01283957	     -0.33322900	     32.14566298	     -9.78835099	     -8.45124571	    -56.42465778	     -6.69286406	      3.44517435	     22.92452360	      6.57580292	      9.04560128	     11.84048618	    -10.88572973	      9.01727539	     -0.57328504	    -17.48074326	     10.61208740	     -7.64867081	     -6.90308230
      3.98500000	     -8.28808640	      4.39188665	     -0.99883696	     -0.85206813	     -0.01299154	     -0.33343210	     32.52835159	     -9.61620868	     -8.67678434	    -55.26743732	     -6.01528221	      3.70565635	     22.46840388	      5.83691892	      8.88443964	     12.13131883	    -10.45555614	      9.26111252	     -0.61335882	    -17.65731101	     10.50911773	     -7.55708714	     -7.29387046
      3.99000000	     -8.37714955	      4.28188433	     -0.82411156	     -0.84606998	     -0.01339569	     -0.33355528	     33.06673711	     -9.44780926	     -8.79841928	    -54.03912114	     -5.47208094	      3.90469498	     22.47075919	      5.29217685	      8.75019279	     12.30267895	    -10.08230080	      9.51220124	     -0.51308116	    -17.60170811	     10.55923366	     -7.50844991	     -7.62603664
      3.99500000	     -8.30128088	      4.16203519	     -0.52956441	     -0.84007493	     -0.01367382	     -0.33386362	     33.35647650	     -9.38781065	     -9.13660724	    -52.74961936	     -4.84523685	      4.17649841	     22.30481770	      4.56363472	      8.62206097	     12.56135200	     -9.70516871	      9.76557429	     -0.38177808	    -17.56026106	     10.40029756	     -7.47476675	     -8.12629332
      4.00000000	     -8.25304042	      4.04616283	     -0.31719302	     -0.83411358	     -0.01401278	     -0.33396610	     33.66675589	     -9.23561821	     -9.31110447	    -51.38207187	     -4.24209453	      4.43715670	     22.05637513	      3.87277192	      8.47592982	     12.76892184	     -9.33034054	      9.98821029	     -0.30340738	    -17.53022708	     10.27620961	     -7.44116009	     -8.52819943
      4.00500000	     -8.33353740	      3.95201992	     -0.17922179	     -0.82817473	     -0.01455417	     -0.33396775	     34.12207932	     -9.04243155	     -9.36125140	    -49.94800498	     -3.72980793	      4.67566281	     21.98564169	      3.34345985	      8.34476455	     12.87020284	     -8.98419832	     10.20526184	     -0.24402141	    -17.47803949	     10.30752149	     -7.40421706	     -8.81224284
      4.01000000	     -8.22836173	      3.84142230	      0.06833964	     -0.82224389	     -0.01492717	     -0.33408895	     34.30256940	     -8.93048232	     -9.59509903	    -48.45224179	     -3.10892408	      5.04943339	     21.72243534	      2.61106904	      8.19892491	     13.05848358	     -8.63966192	     10.44802716	     -0.10190119	    -17.39724533	     10.10841776	     -7.38669493	     -9.26361322
      4.01500000	     -8.21669875	      3.73082326	      0.23404667	     -0.81633151	     -0.01543056	     -0.33408374	     34.57607617	     -8.74332679	     -9.69272862	    -46.88108795	     -2.53902525	      5.44484472	     21.49123746	      1.99807482	      8.04443189	     13.15606796	     -8.31913682	     10.67845505	      0.00544980	    -17.31582244	     10.02279106	     -7.34615012	     -9.59569659
